<svg xmlns="http://www.w3.org/2000/svg" viewBox="0 0 32 32" fill="none">
  <defs>
    <linearGradient id="g1" x1="0%" y1="0%" x2="100%" y2="100%">
      <stop offset="0%" style="stop-color:#6C3AED"/>
      <stop offset="100%" style="stop-color:#4F46E5"/>
    </linearGradient>
    <linearGradient id="g2" x1="0%" y1="0%" x2="100%" y2="100%">
      <stop offset="0%" style="stop-color:#A78BFA"/>
      <stop offset="100%" style="stop-color:#818CF8"/>
    </linearGradient>
    <linearGradient id="g3" x1="0%" y1="0%" x2="100%" y2="100%">
      <stop offset="0%" style="stop-color:#FDE68A"/>
      <stop offset="100%" style="stop-color:#F59E0B"/>
    </linearGradient>
  </defs>
  <rect width="32" height="32" rx="8" fill="url(#g1)"/>
  <path d="M 8 8.5 C 8 7.67 8.67 7 9.5 7 L 22.5 7 C 23.33 7 24 7.67 24 8.5 L 24 18.5 C 24 19.33 23.33 20 22.5 20 L 15 20 L 11.5 23.5 L 11.5 20 L 9.5 20 C 8.67 20 8 19.33 8 18.5 Z" fill="white" opacity="0.95"/>
  <circle cx="16" cy="13" r="1.5" fill="url(#g1)"/>
  <circle cx="16" cy="9.5" r="0.9" fill="url(#g2)"/>
  <circle cx="12.5" cy="14" r="0.9" fill="url(#g2)"/>
  <circle cx="19.5" cy="14" r="0.9" fill="url(#g2)"/>
  <line x1="16" y1="9.5" x2="16" y2="11.5" stroke="url(#g1)" stroke-width="0.4" opacity="0.5"/>
  <line x1="12.5" y1="14" x2="14.5" y2="13" stroke="url(#g1)" stroke-width="0.4" opacity="0.5"/>
  <line x1="19.5" y1="14" x2="17.5" y2="13" stroke="url(#g1)" stroke-width="0.4" opacity="0.5"/>
  <g transform="translate(23, 7)">
    <path d="M 0 -2 L 0.5 -0.5 L 2 0 L 0.5 0.5 L 0 2 L -0.5 0.5 L -2 0 L -0.5 -0.5 Z" fill="url(#g3)"/>
  </g>
</svg>
